<svg xmlns="http://www.w3.org/2000/svg" viewBox="0 0 100 130">
  <defs>
    <!-- Textura sutil (ruido fractal aplicado solo a las escamas para look maderoso) -->
    <filter id="woodTex" x="-5%" y="-5%" width="110%" height="110%">
      <feTurbulence type="fractalNoise" baseFrequency="0.9" numOctaves="2" seed="7" result="n"/>
      <feColorMatrix in="n" type="matrix"
        values="0 0 0 0 0
                0 0 0 0 0
                0 0 0 0 0
                0 0 0 0.35 0" result="nf"/>
      <feComposite in="nf" in2="SourceGraphic" operator="in" result="masked"/>
      <feBlend in="SourceGraphic" in2="masked" mode="multiply"/>
    </filter>

    <!-- Gradiente del cuerpo de la escama (medio-marrón a sombra profunda abajo) -->
    <linearGradient id="sbody" x1="50%" y1="0%" x2="50%" y2="100%">
      <stop offset="0%"  stop-color="#a06a3a"/>
      <stop offset="55%" stop-color="#5e3a1c"/>
      <stop offset="100%" stop-color="#1c0e05"/>
    </linearGradient>

    <!-- Umbo: la puntita brillante de cada escama -->
    <radialGradient id="umbo" cx="50%" cy="40%" r="55%">
      <stop offset="0%"  stop-color="#d8a26c"/>
      <stop offset="45%" stop-color="#8a5a2c"/>
      <stop offset="100%" stop-color="#1a0a04" stop-opacity="0.9"/>
    </radialGradient>

    <!-- Sombra bajo el umbo (le da la sensación de relieve) -->
    <radialGradient id="ushadow" cx="50%" cy="60%" r="40%">
      <stop offset="0%"  stop-color="#1a0a04" stop-opacity="0.55"/>
      <stop offset="100%" stop-color="#1a0a04" stop-opacity="0"/>
    </radialGradient>

    <!-- Sombra al piso -->
    <radialGradient id="ground" cx="50%" cy="50%" r="50%">
      <stop offset="0%"  stop-color="#000" stop-opacity="0.45"/>
      <stop offset="100%" stop-color="#000" stop-opacity="0"/>
    </radialGradient>

    <!-- UNA ESCAMA: cuerpo + umbo + brillito + sombra -->
    <g id="ps">
      <!-- Cuerpo principal: rombo redondeado con borde oscuro fuerte -->
      <path d="M-9.5 3.5 Q-11 -2 -6 -7 Q0 -9 6 -7 Q11 -2 9.5 3.5 Q5 7.5 0 8 Q-5 7.5 -9.5 3.5 Z"
            fill="url(#sbody)" stroke="#0a0402" stroke-width="0.7" stroke-linejoin="round"/>
      <!-- Sombra interior bajo el umbo -->
      <ellipse cx="0" cy="3" rx="6" ry="2.5" fill="url(#ushadow)"/>
      <!-- Umbo (la puntita levantada) -->
      <ellipse cx="0" cy="-1.5" rx="3.5" ry="2.7" fill="url(#umbo)"/>
      <!-- Aro oscuro alrededor del umbo (lo separa del cuerpo) -->
      <ellipse cx="0" cy="-1.5" rx="3.5" ry="2.7" fill="none" stroke="#1a0a04" stroke-width="0.35" stroke-opacity="0.7"/>
      <!-- Brillito especular en el umbo -->
      <ellipse cx="-0.8" cy="-2.6" rx="1.3" ry="0.8" fill="#f0d3a4" opacity="0.7"/>
    </g>
  </defs>

  <!-- Sombra en el piso -->
  <ellipse cx="50" cy="125" rx="26" ry="3.5" fill="url(#ground)"/>

  <!-- Tallo con cogollito -->
  <g transform="translate(50 3)">
    <path d="M-1.2 0 L1.2 0 L1 12 L-1 12 Z" fill="#2a1a0a"/>
    <path d="M-3 1 Q0 -2 3 1 L2 3 Q0 1.5 -2 3 Z" fill="#3a2515"/>
    <path d="M-1 0 Q-0.5 5 0 10 Q0.5 5 1 0" stroke="#1a0a05" stroke-width="0.4" fill="none" opacity="0.6"/>
  </g>

  <!-- Silueta del cuerpo (oscuro, queda visible solo en los huecos entre escamas) -->
  <path d="M50 13 C24 15 11 43 15 73 C20 106 38 123 50 124 C62 123 80 106 85 73 C89 43 76 15 50 13 Z" fill="#080402"/>

  <!-- ════════════ ESCAMAS — capa con textura ════════════ -->
  <g filter="url(#woodTex)">

    <!-- Punta inferior -->
    <use href="#ps" transform="translate(50 116) scale(0.55) rotate(0)"/>

    <!-- Fila 9 (cerca de la punta) -->
    <use href="#ps" transform="translate(40 109) scale(0.68) rotate(-8)"/>
    <use href="#ps" transform="translate(60 109) scale(0.68) rotate(8)"/>

    <!-- Fila 8 -->
    <use href="#ps" transform="translate(31 100) scale(0.78) rotate(-12)"/>
    <use href="#ps" transform="translate(50 101) scale(0.82)"/>
    <use href="#ps" transform="translate(69 100) scale(0.78) rotate(12)"/>

    <!-- Fila 7 (offset) -->
    <use href="#ps" transform="translate(24 90) scale(0.85) rotate(-15)"/>
    <use href="#ps" transform="translate(41 91) scale(0.9) rotate(-5)"/>
    <use href="#ps" transform="translate(59 91) scale(0.9) rotate(5)"/>
    <use href="#ps" transform="translate(76 90) scale(0.85) rotate(15)"/>

    <!-- Fila 6 -->
    <use href="#ps" transform="translate(19 79) scale(0.92) rotate(-18)"/>
    <use href="#ps" transform="translate(34 80) scale(0.95) rotate(-8)"/>
    <use href="#ps" transform="translate(50 80) scale(0.98)"/>
    <use href="#ps" transform="translate(66 80) scale(0.95) rotate(8)"/>
    <use href="#ps" transform="translate(81 79) scale(0.92) rotate(18)"/>

    <!-- Fila 5 (la más ancha) -->
    <use href="#ps" transform="translate(18 67) scale(0.95) rotate(-20)"/>
    <use href="#ps" transform="translate(31 68) scale(1.0) rotate(-10)"/>
    <use href="#ps" transform="translate(45 68) scale(1.02) rotate(-3)"/>
    <use href="#ps" transform="translate(55 68) scale(1.02) rotate(3)"/>
    <use href="#ps" transform="translate(69 68) scale(1.0) rotate(10)"/>
    <use href="#ps" transform="translate(82 67) scale(0.95) rotate(20)"/>

    <!-- Fila 4 (offset) -->
    <use href="#ps" transform="translate(20 55) scale(0.93) rotate(-18)"/>
    <use href="#ps" transform="translate(34 56) scale(0.98) rotate(-8)"/>
    <use href="#ps" transform="translate(50 56) scale(1.0)"/>
    <use href="#ps" transform="translate(66 56) scale(0.98) rotate(8)"/>
    <use href="#ps" transform="translate(80 55) scale(0.93) rotate(18)"/>

    <!-- Fila 3 -->
    <use href="#ps" transform="translate(24 44) scale(0.88) rotate(-15)"/>
    <use href="#ps" transform="translate(38 45) scale(0.92) rotate(-6)"/>
    <use href="#ps" transform="translate(52 45) scale(0.95) rotate(2)"/>
    <use href="#ps" transform="translate(65 44) scale(0.9) rotate(12)"/>
    <use href="#ps" transform="translate(77 43) scale(0.85) rotate(18)"/>

    <!-- Fila 2 -->
    <use href="#ps" transform="translate(29 33) scale(0.78) rotate(-12)"/>
    <use href="#ps" transform="translate(43 34) scale(0.83) rotate(-3)"/>
    <use href="#ps" transform="translate(57 34) scale(0.83) rotate(5)"/>
    <use href="#ps" transform="translate(71 33) scale(0.78) rotate(15)"/>

    <!-- Fila 1 (arriba) -->
    <use href="#ps" transform="translate(35 24) scale(0.65) rotate(-10)"/>
    <use href="#ps" transform="translate(50 25) scale(0.7)"/>
    <use href="#ps" transform="translate(65 24) scale(0.65) rotate(10)"/>

    <!-- Corona superior -->
    <use href="#ps" transform="translate(50 17) scale(0.5)"/>

  </g>

  <!-- Sombra lateral derecha (profundidad global, como si la luz viniera de la izquierda) -->
  <path d="M68 25 C76 50 78 85 62 110 C73 102 82 78 80 50 C77 38 73 30 68 25 Z" fill="#000" opacity="0.22"/>
  <!-- Reflejo lateral izquierdo sutil -->
  <path d="M28 30 C22 55 22 90 35 110 C26 100 19 80 21 55 C23 45 26 35 28 30 Z" fill="#f0d3a4" opacity="0.06"/>
</svg>
